<?xml version="1.0" encoding="utf-8"?>
<!-- Generator: Adobe Illustrator 27.3.1, SVG Export Plug-In . SVG Version: 6.00 Build 0)  -->
<svg version="1.1" id="Ebene_1" xmlns="http://www.w3.org/2000/svg" xmlns:xlink="http://www.w3.org/1999/xlink" x="0px" y="0px"
	 viewBox="0 0 108.9 76.2" style="enable-background:new 0 0 108.9 76.2;" xml:space="preserve">
<style type="text/css">
	.st0{fill:#FFFFFF;}
</style>
<path class="st0" d="M87.22,56.55c-0.77-2.2-1.87-5.23-3.88-11.44c-0.59-1.86-1.11-3.65-1.68-5.67c0.93-1.42,2.04-3.06,3.04-4.58
	c7.27-11.38,15.97-25,20.67-32.35H85.81c-2.71,4.15-6.64,10.22-10.65,16.37C71.94,8,63.87,0.87,52.61,0.07
	C37.65-1,11.83,10.22,2.25,38.27C-6.62,64.26,12.62,75.36,27.3,76.14c14.57,0.75,31.9-5.83,43.55-20.58
	c0.42,1.41,0.99,3.14,1.39,4.5c2.84,8.96,8.43,14.36,17.64,15.5c11.89,1.49,19.02-7.81,19.02-7.81
	C98.07,68.99,91.01,67.54,87.22,56.55 M27.36,70.39c-10.56-1.31-12.71-13.09-8.1-27.08c4.85-14.56,18.27-33.63,29.91-31.56
	c7.73,1.36,10.68,11.12,12.74,17.9c0.91,3.08,2.19,8.02,2.13,9.02c-0.05,0.88-0.71,1.99-1.26,2.81
	C50.73,60.11,36.66,71.54,27.36,70.39"/>
</svg>
