<?xml version="1.0" encoding="utf-8"?>
<!-- Generator: Adobe Illustrator 27.3.1, SVG Export Plug-In . SVG Version: 6.00 Build 0)  -->
<svg version="1.1" id="Ebene_1" xmlns="http://www.w3.org/2000/svg" xmlns:xlink="http://www.w3.org/1999/xlink" x="0px" y="0px"
	 viewBox="0 0 1898.34 371.35" style="enable-background:new 0 0 1898.34 371.35;" xml:space="preserve">
<style type="text/css">
	.st0{fill:#FFFFFF;}
</style>
<path class="st0" d="M1091.43,340.55c0,8.48,0,16.72,0,25.16c-59.54,0-118.88,0-178.51,0c0-8.34,0-16.68,0-25.29
	c1.13-0.07,2.25-0.16,3.38-0.19c10.97-0.27,21.95-0.39,32.92-0.85c4.31-0.18,8.65-0.8,12.86-1.75c5.99-1.36,9.06-6.32,12.11-11.04
	c3.96-6.12,5.59-13.05,6.12-20.21c0.45-6.16,0.78-12.34,0.78-18.51c0.05-72.63-0.04-145.25,0.15-217.88
	c0.02-6.87-2.23-12.6-6.1-17.68c-6.61-8.69-15.89-13.08-26.65-13.98c-9.6-0.8-19.24-1.11-28.87-1.6c-1.4-0.07-2.8-0.01-4.43-0.01
	c0-8.14,0-16.72,0-25.67c1.55,0,2.94,0,4.33,0c48.76,0,97.53,0.02,146.29-0.07c2.71-0.01,4.49,0.89,6.38,2.72
	c9.28,8.96,18.68,17.78,28.08,26.62c7.88,7.42,15.82,14.77,23.72,22.17c12.6,11.81,25.18,23.64,37.79,35.45
	c7.62,7.13,15.28,14.21,22.89,21.35c12.61,11.81,25.19,23.64,37.79,35.45c7.71,7.22,15.46,14.4,23.17,21.62
	c12.51,11.72,24.98,23.48,37.52,35.16c8.3,7.73,16.69,15.36,25.35,23.33c0.08-1.13,0.22-2.17,0.22-3.21
	c0.01-49.28,0.21-98.57-0.14-147.85c-0.09-12.09-2.85-23.95-9.21-34.59c-3.79-6.35-9.89-8.89-16.88-10.2
	c-13.2-2.48-26.51-1.13-39.76-1.51c-0.64-0.02-1.28-0.06-2.2-0.11c0-8.66,0-17.26,0-26.1c58.4,0,116.8,0,175.39,0
	c0,8.91,0,17.68,0,26.8c-6.51,0.32-13.02,0.64-19.53,0.98c-10,0.51-20.08,0.47-29.98,1.76c-6.01,0.78-10.74,4.32-12.7,11.1
	c-2.34,8.04-3.72,16.11-3.74,24.43c-0.27,97.22-0.53,194.43-0.79,291.65c0,0.91,0,1.81,0,2.92c-0.8,0.15-1.52,0.41-2.24,0.41
	c-11.54,0.03-23.08,0-34.63,0.03c-3.89,0.01-5.33-3.54-7.67-5.51c-6.4-5.41-12.28-11.43-18.3-17.28
	c-10.77-10.45-21.44-21-32.24-31.42c-12.26-11.84-24.61-23.59-36.92-35.38c-12.12-11.61-24.25-23.22-36.38-34.82
	c-11.94-11.43-23.89-22.85-35.83-34.27c-12.22-11.7-24.44-23.4-36.66-35.1c-12.22-11.7-24.43-23.4-36.65-35.1
	c-12.13-11.61-24.23-23.24-36.39-34.81c-4.58-4.35-9.3-8.55-14.2-13.06c-0.11,1.03-0.29,1.97-0.29,2.9
	c-0.01,45.78-0.1,91.56,0.02,137.34c0.06,23.42,0.24,46.85,0.87,70.27c0.23,8.6,1.09,17.4,8.36,23.8c5.69,5,12.73,6.56,19.76,8.18
	c9.83,2.27,19.82,2.54,29.86,2.42C1083.5,339.46,1087.32,340.16,1091.43,340.55z"/>
<path class="st0" d="M322.29,3.4c9.12,0,17.78,0,26.39,0c0,41.13,0,82.12,0,123.35c-7.47,0-14.42,0-21.09,0
	c-4.94-7.57-9.76-15.15-14.81-22.59c-1.64-2.42-3.84-4.47-5.86-6.62c-11.92-12.64-24.51-24.5-39.59-33.4
	c-12.03-7.09-23.82-14.62-36.1-21.23c-11.33-6.1-23.77-9.25-36.41-11.72c-17.27-3.37-34.75-2.88-52.04-1.97
	c-14.88,0.78-29.87,3.36-43.33,10.65c-9.98,5.41-18.93,12.09-24,22.81c-4.12,8.71-3.93,17.25-0.25,26.11
	c4.83,11.63,13.69,19.64,24.31,25.04c7.75,3.94,16.74,5.77,25.38,7.58c15.65,3.28,31.46,5.76,47.17,8.72
	c22.94,4.31,45.98,8.2,68.75,13.3c17.26,3.86,34.29,8.96,51.2,14.2c14.33,4.44,26.69,12.87,38.82,21.47
	c11.44,8.11,20.18,18.58,27.25,30.74c4.9,8.43,7.75,17.48,9.45,26.73c1.49,8.15,0.95,16.7,1.11,25.08c0.2,9.87-0.12,19.6-3.59,29.14
	c-4.98,13.71-14.07,24-24.85,33.37c-11.36,9.87-23.97,17.66-37.49,24.03c-14.84,7-30.41,12.01-46.46,15.28
	c-25.44,5.18-51.31,4.81-77,3.66c-14.88-0.67-29.75-3.88-44.4-7.02c-14.52-3.11-28.33-8.71-41.52-15.59
	c-9.1-4.75-17.8-10.27-26.96-14.88c-5.03-2.53-10.53-4.52-16.04-5.6c-6.86-1.35-13.72,4.43-17.12,12.07
	c-3.65,8.19-4.65,16.77-5.5,25.48c-0.12,1.22-1.34,3.33-2.1,3.35C17.15,365.19,8.68,365.1,0,365.1c0-41.53,0-83.5,0-126.02
	c7.82,0,15.67-0.05,23.52,0.09c0.65,0.01,1.5,1.21,1.87,2.04c4.24,9.33,11.1,16.72,17.63,24.41c16.17,19.04,37.44,31.26,58.27,44.11
	c14.76,9.11,30.23,16.75,46.98,21.31c8.77,2.39,17.81,4.4,26.85,5.1c15.41,1.19,30.92,1.81,46.37,1.57
	c13.73-0.21,27.58-1.54,39.95-8.48c10.53-5.91,20.65-12.62,25.8-24.13c2.02-4.52,3.06-9.71,3.45-14.69
	c0.44-5.6-0.42-11.29-0.59-16.94c-0.22-7.22-4.82-11.78-9.96-15.64c-13.01-9.78-28.03-15.28-43.73-18.69
	c-17.47-3.8-35.12-6.76-52.66-10.27c-20.02-4-40.09-7.78-59.95-12.45c-16-3.76-31.9-8.17-47.52-13.28
	c-14.46-4.73-27.3-12.76-39.33-22.17c-12.34-9.66-21.21-21.85-27.96-35.78c-4.37-9.02-6.71-18.6-7.58-28.53
	c-0.5-5.78-0.86-11.6-0.76-17.4c0.25-15.55,5.99-29.08,15.04-41.6c10.34-14.29,24.49-23.71,39.41-32.2
	C73.3,15.09,93.1,8.74,113.45,4.22c8.43-1.87,17.16-2.81,25.79-3.19c15.75-0.68,31.59-1.53,47.3-0.66
	c21.63,1.2,42.71,5.97,62.92,14.07c13.21,5.3,26.26,10.83,38.33,18.57c4.48,2.87,9.91,4.98,15.16,5.81
	c8.77,1.38,12.86-1.59,15.03-10.65c1.56-6.52,2.16-13.27,3.23-19.91C321.47,6.65,321.91,5.08,322.29,3.4z"/>
<path class="st0" d="M1439.57,37.49c0-9.02,0-17.44,0-26.15c73.52,0,146.97,0,220.67,0c0,8.56,0,17.17,0,26.11
	c-10.92,0-21.8-0.17-32.68,0.11c-3.18,0.08-6.56,0.93-9.44,2.3c-5.64,2.67-6.63,8.55-2.89,13.47c7.62,10.03,15.11,20.15,22.72,30.19
	c11.08,14.61,22.24,29.14,33.31,43.76c8.91,11.77,17.7,23.62,26.57,35.42c2.9,3.86,5.88,7.66,9.06,11.8
	c5.59-8.39,11.14-16.66,16.64-24.96c11.93-17.99,23.83-36,35.74-54.01c6.58-9.95,13.16-19.9,19.73-29.86
	c4.61-7,4.71-14.49,0.89-21.55c-1.31-2.42-5.07-4.39-8-4.9c-17.07-3-34.37-2.55-51.63-2.48c-1.12,0-2.23,0.37-3.54,0.6
	c0-8.65,0-17.28,0-26.1c60.55,0,120.93,0,181.6,0c0,8.58,0,17.18,0,25.18c-7.28,0.35-14.57,0.42-21.81,1.11
	c-7.46,0.71-14.94,1.64-22.26,3.17c-8.41,1.76-14.43,7.29-19.25,14.19c-6.55,9.37-13.02,18.79-19.66,28.09
	c-8.12,11.38-16.41,22.65-24.57,34.01c-13.71,19.1-27.38,38.22-41.05,57.35c-7.98,11.17-15.95,22.34-23.82,33.59
	c-0.88,1.26-1.54,2.99-1.54,4.5c-0.09,35.14-0.21,70.29,0.07,105.43c0.05,6.01,0.49,12.83,6.39,16.57c3.06,1.94,7.04,2.8,10.73,3.3
	c6.59,0.9,13.26,1.47,19.91,1.64c10.55,0.26,21.12,0.07,31.88,0.07c0,9.34,0,17.59,0,26.15c-82.2,0-164.46,0-246.98,0
	c0-8.27,0-16.61,0-25.37c2.23,0,4.4,0.04,6.57-0.01c11.49-0.25,23.01-0.15,34.47-0.91c6.87-0.45,14.02-0.82,19.94-5.41
	c3.42-2.65,5.59-6.16,5.6-10.28c0.15-35.4,0.16-70.81-0.07-106.21c-0.02-2.45-1.96-5.14-3.58-7.28
	c-14.12-18.69-28.27-37.35-42.6-55.88c-14.03-18.14-28.35-36.06-42.39-54.2c-6.15-7.94-11.8-16.26-17.89-24.26
	c-7.02-9.22-14.26-18.28-21.4-27.41c-1.88-2.41-3.78-4.81-5.66-7.22c-2.24-2.9-5.38-3.66-8.8-3.67
	C1460.35,37.47,1450.13,37.49,1439.57,37.49z"/>
<path class="st0" d="M884.43,158.53c-4.07-20.95-11.06-40.89-23.81-58.38c-5.02-6.88-9.79-13.99-15.31-20.45
	c-5.16-6.04-10.93-11.6-16.85-16.91c-6.26-5.62-12.73-11.09-19.6-15.92c-18.09-12.72-37.84-22.11-58.9-28.96
	c-16.47-5.36-33.16-9.58-50.35-11.51c-14.36-1.61-28.77-3-43.19-3.78c-8.73-0.48-17.53,0.34-26.3,0.67
	c-3.84,0.14-7.75,0.14-11.51,0.87c-13.81,2.67-27.64,5.33-41.34,8.52c-16.08,3.74-31.76,8.95-46.41,16.61
	c-10.21,5.34-20.05,11.5-29.65,17.9c-14.46,9.65-27.57,21.08-38.48,34.61c-11.58,14.36-21.42,29.89-28.21,47.26
	c-5.49,14.06-9.04,28.58-10.45,43.51c-0.86,9.03-0.72,18.24-0.01,27.29c0.74,9.48,1.92,19.07,4.25,28.26
	c7.16,28.28,22.18,52.31,42.1,73.3c14.06,14.81,30.51,26.72,47.92,37.29c14.85,9.02,30.8,15.75,47.32,20.79
	c21.11,6.45,42.97,9.48,64.96,10.94c11.13,0.74,22.37,0.44,33.54,0.05c10.88-0.38,21.78-1.15,32.6-2.34
	c9.33-1.03,18.67-2.43,27.84-4.46c20.89-4.62,40.9-11.8,59.63-22.29c4.1-2.3,8.43-4.26,12.27-6.93
	c8.77-6.09,17.49-12.29,25.85-18.91c6.13-4.86,11.97-10.19,17.38-15.83c4.84-5.05,9.09-10.7,13.3-16.31
	c9.69-12.88,18.88-25.96,24.11-41.59c5.79-17.3,10.13-34.7,10.34-53.1C886.52,178.64,886.35,168.42,884.43,158.53z M778.62,218.78
	c-1.38,15.42-4.02,30.67-8.3,45.65c-4.39,15.4-11,29.58-20.13,42.71c-6.9,9.92-15.84,17.56-25.57,24.47
	c-11.71,8.31-25.19,12.12-39.03,13.85c-12.6,1.57-25.5,2.32-38.15,1.51c-16.85-1.08-33.37-4.68-48.89-12.02
	c-10.38-4.91-19.13-11.98-27.7-19.38c-18.22-15.73-27.12-36.78-33.26-59.22c-2.9-10.61-4.94-21.47-6.93-32.31
	c-0.88-4.77-0.67-9.73-0.91-14.61c-0.29-5.78-0.85-11.58-0.71-17.35c0.26-10.93,0.78-21.85,1.5-32.76
	c0.5-7.64,1.11-15.31,2.39-22.85c2.44-14.4,6.33-28.43,12.47-41.76c6.45-14,14.19-27.08,25.75-37.64
	c8.96-8.19,19.09-14.3,30.3-18.81c11.15-4.49,22.85-7.16,34.64-8.3c11.72-1.13,23.63-0.34,35.46-0.25
	c11.99,0.09,23.41,3.34,34.52,7.33c10.44,3.75,19.87,9.56,28.58,16.55c11.19,8.99,19.4,20.38,25.68,32.96
	c7.96,15.94,13.32,32.87,15.33,50.7c1.11,9.89,2.23,19.79,3.07,29.71c0.62,7.31,0.81,14.67,1.18,22c-0.38,0-0.76,0.01-1.14,0.01
	C778.79,198.92,779.5,208.92,778.62,218.78z"/>
</svg>
